# xmcd
#
# Track frame offsets:
#	150
#	20805
#	38260
#	57622
#	79375
#	101325
#	120694
#	144179
#	165322
#	186174
#	208649
#	233992
#	253991
#
# Disc length: 3557 seconds
#
# Revision: 0
# Processed by: cddbd v1.4PL0 Copyright (c) Steve Scherf et al.
# Submitted via: dBpowerAMP V4.0
#
DISCID=af0de30d
DTITLE=Fefita La Grande and Rafelito Guzman - En vivo
DYEAR=2001
DGENRE=Country
TTITLE0=Recuerdo A Ramona
TTITLE1=La botija
TTITLE2=Yamaza
TTITLE3=Linda Mama
TTITLE4=La Maya Prendida
TTITLE5=Se Murio Mi Padre
TTITLE6=La Magdalena
TTITLE7=Mi Mujer De Oro
TTITLE8=Mañana Me Voy De Aqui
TTITLE9=A Mi Ay Que Llorarme
TTITLE10=Radhame Guerra
TTITLE11=Yo Vivo Mi Vida
TTITLE12=Debajo De La seiba
EXTD=En vivo
EXTT0=
EXTT1=
EXTT2=
EXTT3=
EXTT4=
EXTT5=
EXTT6=
EXTT7=
EXTT8=
EXTT9=
EXTT10=
EXTT11=
EXTT12=
PLAYORDER=
